<?xml version="1.0" standalone="no"?>
<!DOCTYPE svg PUBLIC "-//W3C//DTD SVG 1.1//EN" "http://www.w3.org/Graphics/SVG/1.1/DTD/svg11.dtd">
<svg width="256" height="256" viewBox="0 0 256 256" fill="none" xmlns="http://www.w3.org/2000/svg">
<path d="M128 32C74.9807 32 32 74.9809 32 128C32 181.019 74.9807 224 128 224C181.019 224 224 181.019 224 128C224 74.9809 181.019 32 128 32ZM102.774 169.698L82.7235 193.357V85.6867C82.7276 79.0329 88.1231 73.6409 94.7767 73.6404L145.545 73.6308C143.136 76.6961 140.696 79.7458 138.315 82.722C135.425 86.3343 132.444 90.0602 129.538 93.7878H102.774V169.698ZM159.522 175.945C156.344 172.28 152.688 168.109 148.981 163.879C141.749 155.625 134.269 147.091 129.854 141.77L128.26 139.85L126.645 141.752C121.678 147.605 116.63 153.477 111.777 159.102V129.857C123.95 114.825 142.724 91.4535 156.947 73.6257H184.227C170.088 89.8583 155.562 106.607 141.477 123.912L140.373 125.267L141.511 126.596C143.185 128.552 174.339 164.499 184.259 175.945H159.522Z" fill="url(#paint0_linear_102_70)"/>
<defs>
<linearGradient id="paint0_linear_102_70" x1="32" y1="128" x2="173.702" y2="273.115" gradientUnits="userSpaceOnUse">
<stop stop-color="#5F5ED7"/>
<stop offset="1" stop-color="#00CEFF"/>
</linearGradient>
</defs>
</svg>

