<svg width="1600" height="1600" viewBox="0 0 32 32" xmlns="http://www.w3.org/2000/svg">
    <circle cx="16" cy="15" r="15" fill="white" />
    <path fill-rule="evenodd" clip-rule="evenodd" fill="#f43e37" d="M16 32c8.837 0 16-7.163 16-16S24.837 0 16 0 0 7.163 0 16s7.163 16 16 16Zm0-28.444C9.127 3.556 3.556 9.127 3.556 16c0 6.873 5.571 12.444 12.444 12.444v-3.11A9.333 9.333 0 1 1 25.333 16h3.111c0-6.874-5.571-12.445-12.444-12.445ZM8.533 16A7.467 7.467 0 0 0 16 23.467v-2.715A4.751 4.751 0 1 1 20.752 16h2.715a7.467 7.467 0 0 0-14.934 0Z"/>
</svg>
