<svg width="800" height="800" viewBox="0 0 800 800" fill="none" xmlns="http://www.w3.org/2000/svg">
<g clip-path="url(#clip0_29_29)">
<path d="M124.719 110.809V535.731C141.38 449.097 187.347 376.783 232.853 308.641C249.504 285.135 265.734 260.918 284.428 239.632H378.065C410.132 196.303 443.306 154.14 475.317 110.743C475.317 110.743 129.908 110.783 124.719 110.809Z" fill="url(#paint0_linear_29_29)"/>
<path d="M441.336 395.015C516.432 298.206 594.217 204.463 672.063 110.719H506.106C431.682 208.624 329.883 341.573 268.169 421.445C253.077 440.573 238.229 460.796 229.369 485.182C205.416 547.531 207.494 618.058 205.966 685.08C259.554 620.102 313.264 555.27 366.362 489.635C400.885 533.294 471.827 616.962 519.365 674.566H672.144C672.144 674.566 451.437 407.392 441.336 395.015Z" fill="url(#paint1_linear_29_29)"/>
</g>
<defs>
<linearGradient id="paint0_linear_29_29" x1="300.018" y1="110.743" x2="300.018" y2="535.731" gradientUnits="userSpaceOnUse">
<stop stop-color="#F93983"/>
<stop offset="1" stop-color="#49B6FF"/>
</linearGradient>
<linearGradient id="paint1_linear_29_29" x1="439.055" y1="110.719" x2="439.055" y2="685.08" gradientUnits="userSpaceOnUse">
<stop stop-color="#F93983"/>
<stop offset="1" stop-color="#49B6FF"/>
</linearGradient>
<clipPath id="clip0_29_29">
<rect width="586.144" height="585.08" fill="white" transform="translate(100 100)"/>
</clipPath>
</defs>
</svg>
